<?xml version="1.0" encoding="UTF-8"?>
<svg id="Vrstva_1" xmlns="http://www.w3.org/2000/svg" version="1.1" viewBox="0 0 325.4 284.5">
  <!-- Generator: Adobe Illustrator 29.1.0, SVG Export Plug-In . SVG Version: 2.1.0 Build 142)  -->
  <defs>
    <style>
      .st0 {
        fill: #fcff6c;
      }
    </style>
  </defs>
  <path class="st0" d="M230.6,147.6c0-.1,0-.2,0-.3,0-.6,0-1.1-.1-1.7-1.1-10.5-9.6-18.9-20.1-20.1-2.6-.3-5.1-.1-7.4.4-4.1.9-7.8,3.2-10.5,6.5,0,0,0,0,0,0l-10.9,12.7c-.7.8-1.9,1-2.8.4-.9-.7-1-2-.3-2.9l4.3-5,1.5-1.6c.5-.6,1.1-1.2,1.5-1.9,3.1-4.1,5-9.1,5.1-14.3,0-1.3,0-2.5-.2-3.6-.2-1-.4-2-.7-3-3.2-10.3-13.8-18.5-24.4-18.2-.2,0-.4,0-.6,0-1.1,0-2.3.1-3.5.4-5.9,1.1-11.2,4.4-15,9.1l-1.3,1.7c-.6.7-1.2,1.4-1.8,2.1l-18.5,23.2c-.7.8-1.9,1-2.8.3-.9-.7-1-2-.3-2.9l5.7-6.6c1.2-1.3.7-3.4-1-4.1-3.1-1.3-6.6-2-10.3-1.7-11.3.7-20.6,9.9-21.4,21.2-.9,13.3,9.6,24.4,22.8,24.4s0,0,0,0c5.7,0,11-2.5,14.7-6.8l15.5-17.9c.6-.7,1.7-1,2.6-.5,1.1.7,1.3,2.1.5,3l-7.5,8.7c-.5.5-.9,1.1-1.3,1.7,0,.1-.2.3-.3.4-3.1,4.1-5,9.1-5.1,14.3,0,1.3,0,2.5.2,3.6.2,1,.4,2,.7,3,3.2,10.3,13.8,18.5,24.4,18.2.2,0,.4,0,.6,0,1.1,0,2.3-.1,3.5-.4,5.9-1.1,11.2-4.4,15-9.1l.8-1h0c0,0,1.1-1.3,1.1-1.3.4-.5.8-.9,1.2-1.4l8.9-11.1,7.6-9.6c.7-.6,1.8-.6,2.5,0,.9.7,1,2,.3,2.9l-5.7,6.6c-1,1.1-.8,2.8.3,3.7.2.2.4.3.7.4,3.1,1.3,6.6,2,10.3,1.7,11.3-.7,20.6-9.9,21.4-21.2,0-.1,0-.3,0-.4,0,0,0,0,0-.1,0-.3,0-.6,0-.9,0-.2,0-.5,0-.7Z"/>
</svg>